<svg xmlns="http://www.w3.org/2000/svg" xmlns:svg="http://www.w3.org/2000/svg" id="ICONS" width="105.6" height="105.6" version="1.1" viewBox="151 18 105.6 105.6"><metadata id="metadata4294"/><defs id="defs4280"><style id="style4278">.cls-1{fill:#fff}.cls-2{fill:#cb2e6d}</style></defs><title id="title4282">vs-mobile-center</title><rect id="rect4284" width="48" height="48" x="151" y="75.6" fill="#fff" stroke-width=".455" class="cls-1"/><g id="iconBg" transform="translate(-0.2,-0.2)"><path id="path4286" fill="#cb2e6d" d="m 230.4,18.2 v 90.7 l -79.2,-11.77 79.2,26.67 26.4,-11 V 29.18 Z" class="cls-2"/><path id="path4288" fill="#cb2e6d" d="M 202.68,42.15 185.52,53.57 V 36.78 h -0.43 v 0 L 176,34 157.8,49 v 7 l 11.82,7.69 -11.82,7.65 v 7 l 18.25,15 9.47,-2.83 V 73.74 l 17.16,11.42 14.52,-4.47 V 46.62 Z M 163.47,52 175,43.9 V 58.12 Z M 175.1,69.2 V 83.41 L 163.6,75.33 Z M 204,72.92 185.32,63.65 204,54.38 Z" class="cls-2"/></g></svg>